<?xml version="1.0" encoding="UTF-8"?>
<svg id="Layer_2" data-name="Layer 2" xmlns="http://www.w3.org/2000/svg" viewBox="0 0 324.97 567.12">
  <g id="Layer_1-2" data-name="Layer 1">
    <path d="M192.67,539.19c11.5-18.9,11.63-41.66,6.5-66.61-6.42-32.84-24.11-73.04-90.89-124.33-62.93-48.44-82.8-71.69-92.91-97.64-11.35-29.75-6.93-47.87,5.92-68.99,14.2-23.35,38.88-32.2,71.4-23.07,19.46,65.65,33.58,130.08,94.55,183.41,40.62,35.88,66.62,41.54,80.82,18.19,22.09-36.32-10.94-121.39-72.06-175.32-39.73-34.83-75.24-54.91-105.03-61.86-5.65-25.77-6.12-45.86,5.6-65.13,19.84-32.61,57.51-26.95,99.54,10.79,47.5,42.09,88.8,126.1,126.83,195.44l2.01-.81c-36.02-70.14-74.22-186.79-125.2-231.5-48.98-42.99-89.61-41.31-113.95-1.29-15.55,25.57-8.02,59.09,3.23,92.33-34.62-7.35-61.61,3.64-78.29,31.07s-12.63,58.32,2.01,97.68c12.45,32.95,34.14,85.75,98.83,138.81,53.22,43.54,77.16,57.6,85.79,82.64,3.72,11.4,2.44,26.87-5.22,39.47-14.2,23.35-35.11,24.33-51.24,9.96-5.25-4.72-8.2-9.05-9.88-14.64-5.36,1.31-9.33,4.48-13.38,11.15-6.09,10.01-4.1,25.94,8.4,37.1,22.12,19.55,48.57,12.79,66.6-16.85ZM182.52,213.69c58.75,51.98,99.08,98.34,86.23,119.47-10.37,17.05-38.72,6.91-85.71-34.36-44.99-39.55-64.31-78.72-89.01-139.94,24.87,7.51,55.11,25.4,88.48,54.84Z"/>
  </g>
</svg>