<?xml version="1.0" encoding="UTF-8"?>
<svg id="Layer_2" data-name="Layer 2" xmlns="http://www.w3.org/2000/svg" viewBox="0 0 432.31 430.71">
  <g id="Layer_1-2" data-name="Layer 1">
    <path d="M182.97,401.78h32.14c60,0,85.18-15,107.68-32.14,19.29-15,52.5-62.68,64.82-132.85,25.71-146.78-32.14-213.21-133.39-213.21-54.11,0-99.11,10.18-136.07,40.18-27.32,22.5-40.18,45.53-45.54,72.86-8.57,45,20.36,71.78,57.86,71.78,28.39,0,42.32-6.43,64.28-30.53l2.14,1.07c-26.79,35.89-47.68,59.46-88.93,59.46s-72.86-28.93-64.28-77.68c6.43-31.61,33.75-67.5,71.78-99.1C163.15,22.5,210.83,0,275.65,0c111.43,0,174.64,79.28,152.14,207.85-15.54,88.39-76.61,144.1-102.32,163.93-31.07,23.57-84.11,58.93-154.28,58.93-86.78,0-131.25-3.75-168.75-6.43-3.21,0-2.68-2.68-1.61-3.75,10.18-6.96,25.18-15,35.36-19.82,9.11-4.29,13.39-4.82,21.96-4.82,26.79,0,55.18,4.29,122.68,5.36"/>
  </g>
</svg>