<?xml version="1.0" encoding="UTF-8"?>
<svg id="Layer_2" data-name="Layer 2" xmlns="http://www.w3.org/2000/svg" viewBox="0 0 367.98 466.75">
  <g id="Layer_1-2" data-name="Layer 1">
    <path d="M160.64,221.36c-1.45,1.56-3.65,3.15-8.11,4.82-7.8,2.92-19.78,4.87-27.27,5.9-3.37.5-4.21-1.73-2.03-4.07l14.49-15.6C188.42,157.82,23.32,72.02,76.93,14.31,92.14-2.07,127.57-1.11,180.39,1.46l.47,2.62c-36.94-.9-49.28,1.44-61.23,14.31-42.38,45.62,74.89,110.96,58.28,171.08,14.04-7.3,29.64-13.14,46.41-17.91,32.04-9.47,70.34-12.39,98.89,6.14,65.18,41.66,59.79,120.18-20.25,206.36-43.83,47.18-99.76,72.22-157.1,79.98-45.71,6.21-88.81,1.77-114.24-13.86-38.97-25.3-40.02-64.05-13.58-92.52,26.44-28.47,57.72-27.74,99.7-22.89l-.67,2.28c-30.89-.37-43.88,5.01-61.99,24.51-23.9,25.74-22.96,61.48,13.28,84.24,21.98,13.88,45.15,19.42,77.75,14.83,44.21-6.15,84.11-37.37,120.69-76.76,75.7-81.5,83.17-154.46,16.82-197.2-20.44-13.18-40.17-16.97-59.19-12.12-13.82,3.15-28.3,8.58-56.19,38.6l-7.61,8.19Z"/>
  </g>
</svg>