<?xml version="1.0" encoding="UTF-8"?>
<svg id="Layer_1" xmlns="http://www.w3.org/2000/svg" version="1.1" viewBox="0 0 428.9 1311.3">
  <!-- Generator: Adobe Illustrator 29.3.1, SVG Export Plug-In . SVG Version: 2.1.0 Build 151)  -->
  <defs>
    <style>
      .st0 {
        fill: #231f20;
      }
    </style>
  </defs>
  <path class="st0" d="M164.6,677.8c-76.2-269.6-92.3-454.4-7.8-579.6C245.8-33.6,335.8-11.5,390.8,42.1c35.7,35.1,42.9,98,35.5,166.2l-4.8.9c-2.3-37.5-19.6-63-38.9-81.5-42.3-39.6-121-41.6-188.2,57.9-69.1,102.4-74.7,235.4-18.9,476l18.6,70.6c36,138.9,84.7,283.6,182.8,543.1,7.2,20,12.8,32.1,10.3,35.9-3.8,5.7-8.3,4.1-25.6-13.2-168.5-167.6-131-122.6-306.6-318.5-22.1-24.6-39-65-50.7-117.1-2.5-12.7-4-24.8-4.2-34.6l6-8.9c1-1.5,3-1.6,4.5-.6s0,0,0,0c255.1,282.7,216.3,243.7,319.7,356.3-67.5-178.1-109.9-307.5-146-429.9l-19.6-67.1Z"/>
</svg>