<?xml version="1.0" encoding="UTF-8"?>
<svg id="Layer_1" xmlns="http://www.w3.org/2000/svg" version="1.1" viewBox="0 0 351.6 569.5">
  <!-- Generator: Adobe Illustrator 29.3.1, SVG Export Plug-In . SVG Version: 2.1.0 Build 151)  -->
  <path d="M90.1,176.6c-21.2,48.4-70.9,97.2-122.3,105.6-108.2,17.8-145.3-60.2-143.6-184.4,1.8-127.8,61.2-243,101.4-288.8,37.2-42.5,82-81.9,141.6-91.7,70.1-11.5,109.7,26.1,108.5,79-.6,30.7-16.1,49.7-39.6,53.5s-21.3.6-31.3-4.1c6.8-10.4,10.1-20.9,10.1-33.7,1.7-41.6-25.3-75.6-85.6-65.7-40.2,6.6-78.9,40.1-99.8,64.9-32.8,38.9-63.6,124.4-64.3,206.5-1.9,174.8,53.5,238.4,143.6,223.6,27.1-4.5,58.9-27.5,81.3-68.9"/>
</svg>