<?xml version="1.0" encoding="UTF-8"?>
<svg id="Layer_2" data-name="Layer 2" xmlns="http://www.w3.org/2000/svg" viewBox="0 0 218.2 757.94">
  <g id="Layer_1-2" data-name="Layer 1">
    <path d="M101.83,284.11C-3.09,103.06-1.15,77.74,15.98,0l2.6.73c.32,37.17,15.82,63.3,125.21,248.41,72.3,122.3,77.41,228.28,73.44,300.67-4.71,81.88-21.99,141.04-66.3,179.02-51.69,44.31-107.93,37.33-139.9-16.07-20.12-34.98-9.66-74.5,7.31-122.54l3.16.24c-5.6,31.41-3.33,50.15,10.47,70.85,25.4,42.28,74.98,46.1,119.29,8.12,43.17-37,58.59-78.8,60.7-120.02,2.11-48.12-14.36-102.98-90.89-232.5-5.6-9.98-11.77-19.48-16.88-28.89"/>
  </g>
</svg>