<?xml version="1.0" encoding="UTF-8"?>
<svg id="Layer_2" data-name="Layer 2" xmlns="http://www.w3.org/2000/svg" viewBox="0 0 695.66 425.65">
  <g id="Layer_1-2" data-name="Layer 1">
    <path d="M0,4.01L4.02,0c22.75,13.39,33.46,18.74,77.63,18.74C136.53,18.74,219.52,0,294.47,0c129.84,0,198.1,48.19,266.37,95.03,72.28,49.53,120.47,113.78,131.18,168.66,20.08,100.39-45.51,161.96-132.51,161.96-77.63,0-137.87-52.2-187.39-117.79l4.02-2.68c40.16,45.51,68.26,56.22,120.47,56.22,78.97,0,141.88-62.91,124.48-156.61-9.37-48.19-30.79-82.99-64.25-105.74-30.79-21.42-70.94-32.12-111.1-32.12-105.74,0-186.05,14.73-283.77,14.73-22.75,0-46.85-1.34-69.6-9.37C64.25,61.57,33.46,37.48,0,4.01Z"/>
  </g>
</svg>