<?xml version="1.0" encoding="UTF-8"?>
<svg id="Layer_2" data-name="Layer 2" xmlns="http://www.w3.org/2000/svg" viewBox="0 0 425.09 346.61">
  <g id="Layer_1-2" data-name="Layer 1">
    <path d="M17.23,24.74c.5-11.24-.91-15.59-2.7-23.71l1.12-1.02c25.03,27.93,37.89,40.3,140.34,63.63,119.97,27.33,175.43,70.55,212.34,108.66,39.98,41.46,58.5,71.24,56.64,112.99s-33.16,70.38-78.22,58.72c-27.03-7.1-44.71-31.48-62.65-62.31l1.68-1.53c15.34,16.77,28.39,24.86,44.83,28.81,36.08,8.58,62.4-16.53,64.19-56.66,1.6-35.86-8.74-56.69-29.24-77.98-23.57-24.64-80.07-44.32-153.4-59.38C96.34,90.46,76.28,71.34,31.96,18.96l-.56.51c8.04,12.16,8.93,28.28,8.21,44.34-2.1,47.1-13.05,88.43-15.89,152.12-2.29,51.38,18.23,84.46,66.52,95.73,53.06,12.55,91.17-24.36,93.17-69.32,1.36-30.5-4.37-46.31-29.01-71l1.17-2.09c36.74,30.06,60.33,54.16,58.35,98.58-2.22,49.77-43.46,84.94-100.23,71.15C56.94,325.19-3.79,255.99.19,166.62,2.5,114.71,15.06,73.44,17.23,24.74Z"/>
  </g>
</svg>