<?xml version="1.0" encoding="UTF-8"?>
<svg id="Layer_2" data-name="Layer 2" xmlns="http://www.w3.org/2000/svg" viewBox="0 0 692.11 566.27">
  <g id="Layer_1-2" data-name="Layer 1">
    <path d="M427.31,350.94c-117.72,139.33-211.6,215.33-309.96,215.33-103.57,0-124.43-56.63-115.49-105.8,5.96-32.04,37.25-58.86,76.74-79.73l2.24,2.24c-19.37,14.9-26.82,33.53-29.8,50.67-5.96,37.25,21.61,80.47,99.84,80.47,80.47,0,154.23-45.45,263.76-163.18l31.29-35.76c61.84-70.04,122.19-149.02,226.51-296.54C680.63,7.45,685.11,0,688.09,0c4.47,0,5.22,2.98,2.24,18.63-29.06,152-45.45,242.15-87.17,408.31-5.22,20.86-20.86,44.71-44.71,70.04-5.96,5.96-11.92,11.18-17.14,14.9h-7c-1.18,0-1.97-1.03-1.94-2.21,0,0,0-.01,0-.02,59.61-240.66,79.72-332.31,102.82-429.17-71.53,101.33-125.92,171.37-178.82,235.45l-29.06,35.02Z"/>
  </g>
</svg>